<svg xmlns="http://www.w3.org/2000/svg" xmlns:xlink="http://www.w3.org/1999/xlink" width="1280" zoomAndPan="magnify" viewBox="0 0 960 239.999995" height="320" preserveAspectRatio="xMidYMid meet" version="1.0"><defs><g/></defs><g fill="#ffffff" fill-opacity="1"><g transform="translate(92.09813, 182.749489)"><g><path d="M 15.59375 -107 L 17 -118.796875 L 17.203125 -125 C 17.203125 -126.726562 17.535156 -128.0625 18.203125 -129 L 20.203125 -131.796875 C 23.796875 -134.597656 26.125 -136.195312 27.1875 -136.59375 C 28.257812 -137 29.828125 -136.96875 31.890625 -136.5 C 33.960938 -136.03125 35.195312 -135.597656 35.59375 -135.203125 L 37.796875 -133.40625 C 38.992188 -132.738281 39.59375 -131.671875 39.59375 -130.203125 C 40.257812 -129.398438 40.460938 -128.800781 40.203125 -128.40625 C 39.398438 -127.46875 38.066406 -119.597656 36.203125 -104.796875 L 34.59375 -77.59375 L 33.59375 -72.203125 C 33.59375 -70.460938 33.660156 -69.460938 33.796875 -69.203125 L 33.796875 -65.59375 C 33.535156 -62.925781 33.269531 -61.257812 33 -60.59375 C 33 -59.925781 32.863281 -59.195312 32.59375 -58.40625 C 32.863281 -58.132812 33 -57.097656 33 -55.296875 C 33 -53.492188 32.800781 -52.394531 32.40625 -52 C 32.132812 -49.863281 32 -47.828125 32 -45.890625 C 32 -43.960938 32.164062 -41.960938 32.5 -39.890625 C 32.832031 -37.828125 32.929688 -35.796875 32.796875 -33.796875 L 33.59375 -26.203125 L 33.59375 -23.203125 C 33.863281 -20.796875 34 -18.863281 34 -17.40625 L 35 -7 L 35.796875 -1.59375 C 36.203125 0.664062 36.035156 2.863281 35.296875 5 C 34.566406 7.132812 33.46875 8.46875 32 9 C 27.863281 10.726562 23.332031 9.59375 18.40625 5.59375 L 16.796875 5.59375 C 15.867188 4.53125 15.132812 3.066406 14.59375 1.203125 C 13.53125 0.671875 13.066406 -0.257812 13.203125 -1.59375 C 13.335938 -2.925781 13.070312 -4.125 12.40625 -5.1875 C 11.738281 -6.257812 11.40625 -7.195312 11.40625 -8 C 11.40625 -9.726562 11.269531 -11.257812 11 -12.59375 L 11.203125 -14.203125 C 10.796875 -14.597656 10.59375 -15.195312 10.59375 -16 L 10.203125 -19.59375 L 10.203125 -21.203125 C 10.203125 -22.265625 10.164062 -22.992188 10.09375 -23.390625 C 10.03125 -23.796875 10.195312 -24.46875 10.59375 -25.40625 C 10.195312 -25.9375 10.132812 -27.867188 10.40625 -31.203125 C 11.195312 -41.460938 11.59375 -48.53125 11.59375 -52.40625 L 11.796875 -57.203125 L 11.796875 -63 C 11.929688 -66.195312 12.03125 -70.257812 12.09375 -75.1875 C 12.164062 -80.125 12.398438 -82.796875 12.796875 -83.203125 L 12.59375 -85 C 12.59375 -88.195312 13.09375 -92.5625 14.09375 -98.09375 C 15.09375 -103.632812 15.59375 -106.601562 15.59375 -107 Z M 15.59375 -107 "/></g></g></g><g fill="#ffffff" fill-opacity="1"><g transform="translate(124.497224, 182.749489)"><g><path d="M 20 -125.40625 C 28.9375 -125.40625 35.203125 -123.601562 38.796875 -120 C 38.796875 -117.726562 37.265625 -113.128906 34.203125 -106.203125 C 33.671875 -103.929688 32.800781 -102.128906 31.59375 -100.796875 L 29 -98.203125 C 28.332031 -97.796875 27.664062 -97.59375 27 -97.59375 C 22.195312 -96.394531 18.460938 -97.332031 15.796875 -100.40625 C 15.265625 -101.195312 14.628906 -101.789062 13.890625 -102.1875 C 13.160156 -102.59375 12.597656 -103.796875 12.203125 -105.796875 C 11.003906 -107.535156 10.40625 -108.867188 10.40625 -109.796875 C 10.132812 -118.066406 13.132812 -123.269531 19.40625 -125.40625 Z M 18.40625 -78.203125 C 19.738281 -78.867188 22.867188 -78.203125 27.796875 -76.203125 C 28.328125 -75.671875 29.128906 -75.132812 30.203125 -74.59375 L 33.40625 -72 C 33.9375 -71.46875 34.203125 -70.601562 34.203125 -69.40625 L 34.203125 -51.796875 C 34.203125 -49.128906 34.066406 -46.726562 33.796875 -44.59375 L 33.796875 -43.40625 C 33.398438 -37.9375 33.734375 -25.601562 34.796875 -6.40625 C 35.203125 -2.664062 34.335938 -0.394531 32.203125 0.40625 C 29.929688 0.40625 28.460938 0.0703125 27.796875 -0.59375 C 27.265625 -0.863281 26.800781 -1 26.40625 -1 L 25 -1 L 23.796875 -0.59375 C 23.398438 -0.59375 22.664062 -0.894531 21.59375 -1.5 C 20.53125 -2.101562 19.832031 -2.738281 19.5 -3.40625 C 19.164062 -4.070312 18.597656 -4.46875 17.796875 -4.59375 C 16.328125 -5.132812 15.53125 -6.132812 15.40625 -7.59375 C 13.53125 -11.195312 12.5625 -13.332031 12.5 -14 C 12.4375 -14.664062 12.203125 -15.398438 11.796875 -16.203125 L 10.796875 -33.59375 C 10.796875 -35.59375 10.929688 -37.128906 11.203125 -38.203125 L 11.203125 -43 C 11.335938 -44.46875 11.46875 -47.164062 11.59375 -51.09375 C 11.726562 -55.03125 11.929688 -58.195312 12.203125 -60.59375 C 11.929688 -64.0625 11.796875 -66.394531 11.796875 -67.59375 C 11.796875 -68.800781 11.863281 -69.671875 12 -70.203125 C 10.53125 -71.671875 10.597656 -73.671875 12.203125 -76.203125 C 13.929688 -77.535156 15.597656 -78.203125 17.203125 -78.203125 Z M 18.40625 -78.203125 "/></g></g></g><g fill="#ffffff" fill-opacity="1"><g transform="translate(154.296381, 182.749489)"><g><path d="M 54.203125 -62.796875 L 53.59375 -63 C 53.863281 -62.863281 54.066406 -62.796875 54.203125 -62.796875 Z M 29 -11.59375 L 29 -9.796875 C 32.0625 -5.660156 33.660156 -3.59375 33.796875 -3.59375 C 34.460938 -3.59375 35.992188 -3.992188 38.390625 -4.796875 C 38.523438 -4.796875 39.222656 -5.425781 40.484375 -6.6875 C 41.753906 -7.957031 42.660156 -8.796875 43.203125 -9.203125 C 44.796875 -10.128906 45.859375 -10.726562 46.390625 -11 C 46.390625 -12.0625 46.859375 -13.160156 47.796875 -14.296875 C 48.734375 -15.429688 49.566406 -16.566406 50.296875 -17.703125 C 51.023438 -18.835938 51.523438 -19.671875 51.796875 -20.203125 C 52.597656 -21.265625 52.863281 -21.796875 52.59375 -21.796875 C 52.863281 -22.328125 53.265625 -23.460938 53.796875 -25.203125 L 55.796875 -29.796875 L 58 -39.796875 C 58.257812 -40.734375 57.925781 -43.664062 57 -48.59375 L 57 -50.40625 C 56.726562 -50.800781 56.59375 -51.195312 56.59375 -51.59375 L 56.59375 -51.796875 L 56.390625 -53.796875 C 56.390625 -54.460938 56.191406 -55.597656 55.796875 -57.203125 C 55.523438 -58.398438 54.722656 -60.332031 53.390625 -63 L 51.203125 -63 C 48.796875 -61.800781 46.992188 -60.535156 45.796875 -59.203125 C 44.328125 -57.335938 42.457031 -54.003906 40.1875 -49.203125 C 37.925781 -44.398438 36.394531 -40.066406 35.59375 -36.203125 L 34.390625 -31.40625 C 32.660156 -27.800781 31.53125 -23.664062 31 -19 L 30 -16.203125 Z M 74.59375 -69 C 77.257812 -63.269531 78.59375 -58.46875 78.59375 -54.59375 C 78.59375 -46.863281 77.925781 -41 76.59375 -37 C 76.59375 -35.53125 76.460938 -34.394531 76.203125 -33.59375 C 74.992188 -24.800781 73.457031 -18.269531 71.59375 -14 C 70.925781 -13.0625 70.191406 -11.59375 69.390625 -9.59375 C 68.597656 -7.332031 66.597656 -4.734375 63.390625 -1.796875 C 63.390625 -1.398438 62.390625 -0.171875 60.390625 1.890625 C 58.390625 3.960938 55.257812 5.664062 51 7 C 46.0625 8.601562 42.859375 9.40625 41.390625 9.40625 C 33.796875 10.601562 28.265625 9.46875 24.796875 6 L 24.59375 6.203125 C 21.925781 10.867188 18.726562 12.269531 15 10.40625 C 12.726562 9.195312 11.425781 8.394531 11.09375 8 C 10.757812 7.601562 10.523438 6.738281 10.390625 5.40625 C 9.460938 3 9.128906 0.195312 9.390625 -3 L 10.390625 -9.59375 C 9.992188 -11.863281 9.929688 -13.863281 10.203125 -15.59375 L 10.203125 -17 C 10.460938 -19.664062 10.660156 -24.765625 10.796875 -32.296875 C 10.929688 -39.828125 11.164062 -44.425781 11.5 -46.09375 C 11.832031 -47.757812 12 -49.328125 12 -50.796875 C 13.59375 -69.066406 14.488281 -78.832031 14.6875 -80.09375 C 14.894531 -81.363281 15 -85.664062 15 -93 L 15 -104 C 15 -106.132812 14.960938 -107.734375 14.890625 -108.796875 C 14.828125 -109.867188 15.0625 -110.601562 15.59375 -111 C 14.53125 -114.0625 14.332031 -117.53125 15 -121.40625 L 15 -123.796875 C 14.726562 -126.328125 15.257812 -128.726562 16.59375 -131 C 17.53125 -132.195312 19.394531 -133.328125 22.1875 -134.390625 C 24.988281 -135.460938 27.328125 -136.066406 29.203125 -136.203125 L 30.203125 -136.203125 C 31.929688 -136.203125 33.460938 -135.734375 34.796875 -134.796875 C 36.398438 -134.128906 37.203125 -132.53125 37.203125 -130 C 37.460938 -129.195312 37.460938 -128.332031 37.203125 -127.40625 C 37.328125 -126.46875 36.691406 -117.03125 35.296875 -99.09375 C 33.898438 -81.164062 33.203125 -71.367188 33.203125 -69.703125 C 33.203125 -68.035156 33.164062 -66.96875 33.09375 -66.5 C 33.03125 -66.03125 33 -65.726562 33 -65.59375 C 33.664062 -65.863281 34.0625 -66.332031 34.1875 -67 C 34.320312 -67.664062 34.59375 -68.132812 35 -68.40625 C 37.257812 -70 38.390625 -71.128906 38.390625 -71.796875 C 38.390625 -71.929688 38.722656 -72.265625 39.390625 -72.796875 C 40.054688 -73.328125 40.457031 -73.59375 40.59375 -73.59375 C 40.863281 -74 41.332031 -74.269531 42 -74.40625 L 45.59375 -76.203125 C 45.726562 -77.003906 47.660156 -77.367188 51.390625 -77.296875 C 55.128906 -77.234375 57.398438 -76.9375 58.203125 -76.40625 C 59.535156 -75.738281 60.429688 -75.300781 60.890625 -75.09375 C 61.359375 -74.894531 61.828125 -74.757812 62.296875 -74.6875 C 62.765625 -74.625 64.597656 -74.0625 67.796875 -73 C 69.265625 -73 70 -72.800781 70 -72.40625 C 70.53125 -72.132812 70.929688 -72 71.203125 -72 C 73.460938 -70.664062 74.59375 -69.664062 74.59375 -69 Z M 74.59375 -69 "/></g></g></g><g fill="#ffffff" fill-opacity="1"><g transform="translate(225.094444, 182.749489)"><g><path d="M 47.59375 -57.40625 C 47.46875 -60.332031 46.800781 -62.5625 45.59375 -64.09375 C 44.394531 -65.632812 42.195312 -66.535156 39 -66.796875 C 38.0625 -66.128906 36.828125 -63.894531 35.296875 -60.09375 C 33.765625 -56.300781 32.800781 -52.269531 32.40625 -48 C 31.070312 -41.601562 30.40625 -35.203125 30.40625 -28.796875 C 30.53125 -22.265625 31.59375 -17.46875 33.59375 -14.40625 C 33.863281 -13.863281 34.132812 -13.660156 34.40625 -13.796875 C 35.070312 -13.796875 36.132812 -15.128906 37.59375 -17.796875 C 44.664062 -30.597656 48 -43.800781 47.59375 -57.40625 Z M 53.796875 -19.203125 L 50.796875 -11.40625 C 50.796875 -11.132812 48.863281 -8.265625 45 -2.796875 C 43.800781 -0.265625 41.566406 1.128906 38.296875 1.390625 C 35.035156 1.660156 31.867188 1.332031 28.796875 0.40625 C 24.660156 -1.0625 21.523438 -2.796875 19.390625 -4.796875 C 17.265625 -6.796875 15.164062 -10.160156 13.09375 -14.890625 C 11.03125 -19.628906 9.929688 -23.53125 9.796875 -26.59375 C 9.128906 -31 8.796875 -33.800781 8.796875 -35 L 8.796875 -39.796875 C 8.796875 -44.597656 9 -47.398438 9.40625 -48.203125 C 9.53125 -48.734375 9.863281 -50.132812 10.40625 -52.40625 C 11.070312 -58 12.671875 -63.332031 15.203125 -68.40625 C 20.128906 -78.132812 25.195312 -83.132812 30.40625 -83.40625 L 31.40625 -83.40625 C 31.664062 -83.269531 32.0625 -83.203125 32.59375 -83.203125 L 35.203125 -83.203125 C 39.867188 -82.796875 42.734375 -82.394531 43.796875 -82 C 45.796875 -81.46875 47.53125 -81.203125 49 -81.203125 L 54.203125 -80.203125 C 55.796875 -80.335938 57.894531 -80.003906 60.5 -79.203125 C 63.101562 -78.398438 64.503906 -77.796875 64.703125 -77.390625 C 64.898438 -76.992188 65.265625 -75.53125 65.796875 -73 C 66.328125 -70.46875 66.691406 -68.632812 66.890625 -67.5 C 67.097656 -66.363281 67.269531 -65.195312 67.40625 -64 C 68.46875 -54.269531 70.195312 -45.203125 72.59375 -36.796875 C 72.726562 -36.398438 72.863281 -35.800781 73 -35 C 73.132812 -34.195312 73.597656 -32.628906 74.390625 -30.296875 C 75.191406 -27.960938 75.789062 -25.992188 76.1875 -24.390625 C 76.59375 -22.796875 77.332031 -20.664062 78.40625 -18 C 79.195312 -16 80.394531 -13.664062 82 -11 C 84.9375 -6.863281 83.40625 -3.664062 77.40625 -1.40625 C 76.601562 -1.132812 75.203125 -1 73.203125 -1 C 72.796875 -1 71.53125 -1.664062 69.40625 -3 C 68.070312 -3 66.800781 -3.734375 65.59375 -5.203125 L 64 -5.59375 C 63.0625 -6.53125 62.257812 -7 61.59375 -7 C 61.332031 -7.269531 58.9375 -12.671875 54.40625 -23.203125 C 54 -21.734375 53.796875 -20.398438 53.796875 -19.203125 Z M 53.796875 -19.203125 "/></g></g></g><g fill="#ffffff" fill-opacity="1"><g transform="translate(295.692538, 182.749489)"><g><path d="M 73.203125 -55.40625 L 73.40625 -51.59375 C 73.40625 -51.195312 73.800781 -47 74.59375 -39 L 74.59375 -36.59375 C 74.59375 -33.394531 75.128906 -28.597656 76.203125 -22.203125 C 76.203125 -19.398438 77.601562 -14.53125 80.40625 -7.59375 C 81.070312 -7.195312 81.535156 -6.265625 81.796875 -4.796875 L 81.59375 -2.796875 C 81.863281 -2.128906 81.53125 -1.394531 80.59375 -0.59375 C 80.59375 0.332031 79.328125 0.796875 76.796875 0.796875 C 74.265625 0.796875 72.664062 0.925781 72 1.1875 C 71.332031 1.457031 70.265625 1.328125 68.796875 0.796875 C 68.265625 1.066406 66.664062 0.535156 64 -0.796875 C 62.800781 -1.066406 61.867188 -2.269531 61.203125 -4.40625 L 59.59375 -8.203125 C 59.59375 -10.597656 58.925781 -12.726562 57.59375 -14.59375 C 57.59375 -15.257812 57.289062 -16.457031 56.6875 -18.1875 C 56.09375 -19.925781 55.664062 -20.863281 55.40625 -21 C 54.070312 -15.664062 52.40625 -11.53125 50.40625 -8.59375 C 50.40625 -7.925781 50.003906 -7.128906 49.203125 -6.203125 L 47.203125 -2.40625 C 47.203125 -2.132812 46.601562 -1.398438 45.40625 -0.203125 C 44.601562 1.535156 42.800781 2.40625 40 2.40625 C 37.46875 2.40625 34.398438 1.738281 30.796875 0.40625 C 29.867188 0.269531 28.003906 -0.332031 25.203125 -1.40625 C 24.398438 -1.269531 23.164062 -1.5 21.5 -2.09375 C 19.832031 -2.695312 18.863281 -3 18.59375 -3 C 18.195312 -3.394531 17.265625 -4.0625 15.796875 -5 L 12.40625 -8.59375 C 12.269531 -8.726562 12.035156 -9.363281 11.703125 -10.5 C 11.367188 -11.632812 11.265625 -12.429688 11.390625 -12.890625 C 11.523438 -13.359375 11.523438 -14.0625 11.390625 -15 C 11.265625 -15.9375 11.332031 -16.867188 11.59375 -17.796875 C 11.59375 -20.460938 11.863281 -23.394531 12.40625 -26.59375 C 12.269531 -27 12.203125 -27.46875 12.203125 -28 C 12.203125 -28.53125 12.46875 -29.53125 13 -31 C 12.863281 -31.664062 12.796875 -32.132812 12.796875 -32.40625 L 13.796875 -40.203125 C 13.796875 -42.066406 13.863281 -43.398438 14 -44.203125 L 14 -47.203125 C 14.132812 -47.734375 14.203125 -48.46875 14.203125 -49.40625 L 15.203125 -59 C 15.203125 -60.46875 15.269531 -61.398438 15.40625 -61.796875 L 15.40625 -63.796875 C 15.664062 -64.066406 15.796875 -65.132812 15.796875 -67 L 17.59375 -72.59375 L 19 -75 C 19.132812 -75.53125 19.867188 -76.128906 21.203125 -76.796875 C 23.335938 -78.128906 26.40625 -78.796875 30.40625 -78.796875 C 32 -78.535156 33.726562 -77.867188 35.59375 -76.796875 C 36 -76.929688 36.9375 -76.664062 38.40625 -76 C 41.070312 -74.800781 41.203125 -71.398438 38.796875 -65.796875 C 38.265625 -62.203125 38 -60.335938 38 -60.203125 C 37.46875 -59.128906 37.203125 -58.257812 37.203125 -57.59375 C 36.398438 -53.332031 36 -51.066406 36 -50.796875 C 36.53125 -51.328125 36.332031 -50.53125 35.40625 -48.40625 L 34.59375 -41 C 33.664062 -37.800781 33.269531 -34.269531 33.40625 -30.40625 L 32.59375 -27.796875 C 32.726562 -27.128906 32.664062 -25.0625 32.40625 -21.59375 C 32.664062 -21.195312 32.796875 -20.734375 32.796875 -20.203125 L 33 -18.59375 C 32.863281 -18.195312 32.925781 -17.832031 33.1875 -17.5 C 33.457031 -17.164062 34.226562 -17.03125 35.5 -17.09375 C 36.769531 -17.164062 37.867188 -17.46875 38.796875 -18 C 40.660156 -20.269531 41.925781 -22.632812 42.59375 -25.09375 C 43.257812 -27.5625 43.59375 -29 43.59375 -29.40625 C 45.863281 -35.132812 47.265625 -38.46875 47.796875 -39.40625 C 48.460938 -43 49.597656 -47.128906 51.203125 -51.796875 C 50.929688 -52.460938 50.929688 -53.796875 51.203125 -55.796875 L 53.796875 -66.40625 C 54.992188 -68.40625 55.59375 -69.632812 55.59375 -70.09375 C 55.59375 -70.5625 56.394531 -72.394531 58 -75.59375 C 58 -76.132812 58.398438 -77.203125 59.203125 -78.796875 C 60.128906 -80.265625 61.796875 -81.664062 64.203125 -83 L 64.796875 -83 C 67.734375 -83.269531 70.269531 -82.867188 72.40625 -81.796875 C 72.664062 -81.265625 72.796875 -80.332031 72.796875 -79 C 73.066406 -77.664062 73.332031 -75.265625 73.59375 -71.796875 L 73.59375 -69.796875 L 72.796875 -65.40625 C 73.867188 -62.070312 74.003906 -58.738281 73.203125 -55.40625 Z M 73.203125 -55.40625 "/></g></g></g><g fill="#ffffff" fill-opacity="1"><g transform="translate(367.890562, 182.749489)"><g><path d="M 22.796875 -70.59375 L 23 -72.40625 C 20.195312 -72.664062 18.226562 -72.894531 17.09375 -73.09375 C 15.96875 -73.300781 14.132812 -73.535156 11.59375 -73.796875 C 9.0625 -74.066406 7.0625 -74.46875 5.59375 -75 C 2.800781 -75.9375 1.203125 -78.367188 0.796875 -82.296875 C 0.398438 -86.234375 1.664062 -88.664062 4.59375 -89.59375 C 7.257812 -90.257812 9.125 -90.59375 10.1875 -90.59375 C 11.257812 -90.59375 13.265625 -90.726562 16.203125 -91 C 17.671875 -91.800781 19.671875 -92.269531 22.203125 -92.40625 L 25.203125 -93.203125 C 25.203125 -93.066406 25.734375 -93.195312 26.796875 -93.59375 L 27.796875 -97.796875 C 27.796875 -99.929688 28.394531 -102.066406 29.59375 -104.203125 C 29.59375 -105.128906 30.460938 -107.726562 32.203125 -112 C 32.203125 -112.53125 33.398438 -116.394531 35.796875 -123.59375 C 36.328125 -124.257812 38.328125 -125.796875 41.796875 -128.203125 C 43.929688 -129.265625 46.929688 -128.53125 50.796875 -126 C 52.929688 -125.0625 54.398438 -123.796875 55.203125 -122.203125 C 54.398438 -121.398438 54 -119.53125 54 -116.59375 C 53.863281 -115.664062 52.929688 -110.734375 51.203125 -101.796875 L 51.203125 -96.203125 C 52.265625 -96.066406 54.03125 -95.734375 56.5 -95.203125 C 58.96875 -94.671875 61.9375 -94.070312 65.40625 -93.40625 C 72.070312 -92.070312 76.269531 -89.40625 78 -85.40625 C 78.664062 -82.46875 78.53125 -80.398438 77.59375 -79.203125 C 76.664062 -78.003906 74.398438 -77.132812 70.796875 -76.59375 C 67.867188 -76.46875 64.035156 -76.40625 59.296875 -76.40625 C 54.566406 -76.40625 51.066406 -76.070312 48.796875 -75.40625 C 48.535156 -73 48.40625 -71.128906 48.40625 -69.796875 L 48.203125 -66.796875 C 48.203125 -65.867188 47.601562 -60.9375 46.40625 -52 C 45.601562 -50.800781 44.9375 -44.601562 44.40625 -33.40625 L 44.40625 -18.796875 C 44.40625 -16.398438 44.601562 -14.132812 45 -12 C 45.132812 -9.0625 45.46875 -6.992188 46 -5.796875 C 46 -4.597656 46.332031 -2.066406 47 1.796875 C 45.394531 5.660156 42.757812 7.59375 39.09375 7.59375 C 35.425781 7.59375 32.195312 6.257812 29.40625 3.59375 L 27.203125 0.40625 C 26.796875 -0.664062 26.492188 -1.398438 26.296875 -1.796875 C 26.097656 -2.203125 25.929688 -2.671875 25.796875 -3.203125 C 24.867188 -5.867188 24.132812 -7.535156 23.59375 -8.203125 C 22.800781 -9.265625 22.40625 -10.0625 22.40625 -10.59375 C 22.40625 -11.132812 22.40625 -11.800781 22.40625 -12.59375 C 22.132812 -14.863281 21.800781 -16.800781 21.40625 -18.40625 C 20.738281 -19.070312 20.40625 -21.335938 20.40625 -25.203125 C 20.664062 -32.265625 20.664062 -36.332031 20.40625 -37.40625 C 20.800781 -37.800781 20.863281 -40.332031 20.59375 -45 L 21.203125 -49.40625 C 21.203125 -49.9375 21.46875 -51.9375 22 -55.40625 C 21.726562 -55.9375 21.660156 -57.367188 21.796875 -59.703125 C 21.929688 -62.035156 22.132812 -63.664062 22.40625 -64.59375 C 22.664062 -66.195312 22.796875 -68.195312 22.796875 -70.59375 Z M 22.796875 -70.59375 "/></g></g></g><g fill="#ffffff" fill-opacity="1"><g transform="translate(422.08909, 182.749489)"><g><path d="M 45.59375 -59 C 44.664062 -64.332031 42.066406 -66.800781 37.796875 -66.40625 C 35.398438 -66.269531 33.332031 -64.664062 31.59375 -61.59375 C 29.195312 -56.925781 28.164062 -50.894531 28.5 -43.5 C 28.832031 -36.101562 29.363281 -30.769531 30.09375 -27.5 C 30.832031 -24.226562 32.132812 -21.394531 34 -19 C 35.0625 -17.132812 36.660156 -16.269531 38.796875 -16.40625 C 42.535156 -16.40625 45.269531 -19.535156 47 -25.796875 L 48.59375 -30.59375 C 49.257812 -31.257812 49.394531 -31.925781 49 -32.59375 C 50.332031 -35.925781 51.066406 -39.863281 51.203125 -44.40625 C 49.867188 -45.332031 49.066406 -46.195312 48.796875 -47 C 47.992188 -49.269531 47.59375 -50.800781 47.59375 -51.59375 C 46.664062 -52.257812 46.132812 -53.523438 46 -55.390625 C 45.863281 -57.265625 45.726562 -58.46875 45.59375 -59 Z M 9 -40.203125 L 9.796875 -50.40625 C 10.734375 -59.601562 13.535156 -67.46875 18.203125 -74 C 22.734375 -79.46875 29.132812 -82.269531 37.40625 -82.40625 L 38.59375 -82.40625 C 46.332031 -82.40625 51.9375 -80.738281 55.40625 -77.40625 C 59.132812 -74.46875 61.898438 -71.265625 63.703125 -67.796875 C 65.503906 -64.328125 66.671875 -61.789062 67.203125 -60.1875 C 67.734375 -58.59375 68.066406 -56.265625 68.203125 -53.203125 C 68.460938 -47.460938 67.328125 -44.195312 64.796875 -43.40625 C 66.660156 -30.738281 65.53125 -20.671875 61.40625 -13.203125 C 60.070312 -10.128906 58.132812 -6.796875 55.59375 -3.203125 C 53.726562 -0.796875 50.394531 0.535156 45.59375 0.796875 C 40.800781 0.796875 36.632812 0.53125 33.09375 0 C 29.5625 -0.53125 25.660156 -2.226562 21.390625 -5.09375 C 17.128906 -7.96875 14.132812 -12.671875 12.40625 -19.203125 C 10.53125 -25.460938 9.394531 -32.460938 9 -40.203125 Z M 9 -40.203125 "/></g></g></g><g fill="#ffffff" fill-opacity="1"><g transform="translate(483.087423, 182.749489)"><g><path d="M 19 -82.59375 L 19.40625 -82.59375 C 21.132812 -83.132812 23.929688 -82.9375 27.796875 -82 C 29.128906 -81.601562 29.929688 -77.800781 30.203125 -70.59375 C 30.734375 -65.132812 31 -61.367188 31 -59.296875 C 31 -57.234375 31.066406 -56 31.203125 -55.59375 L 31.203125 -42.203125 L 32.203125 -42 C 32.203125 -42.132812 32.332031 -42.9375 32.59375 -44.40625 C 33.257812 -48.132812 33.992188 -51 34.796875 -53 C 35.328125 -53.53125 35.625 -54.195312 35.6875 -55 C 35.757812 -55.800781 36.128906 -56.664062 36.796875 -57.59375 C 37.597656 -61.332031 39.597656 -66.203125 42.796875 -72.203125 C 43.867188 -74.734375 44.90625 -76.628906 45.90625 -77.890625 C 46.90625 -79.160156 48.4375 -79.59375 50.5 -79.1875 C 52.5625 -78.789062 54.257812 -78.0625 55.59375 -77 C 56.664062 -76.863281 57.9375 -76.664062 59.40625 -76.40625 L 65.203125 -75.203125 C 65.734375 -75.066406 66.460938 -74.628906 67.390625 -73.890625 C 68.328125 -73.160156 68.726562 -72.257812 68.59375 -71.1875 C 68.46875 -70.125 68.335938 -66.992188 68.203125 -61.796875 L 68.203125 -58.59375 L 67.40625 -50.796875 C 67.40625 -48.660156 67.535156 -47.394531 67.796875 -47 L 68.59375 -46.40625 L 70.203125 -55.59375 C 70.203125 -56.53125 70.601562 -57.398438 71.40625 -58.203125 L 73.796875 -64 C 73.796875 -64.394531 74.195312 -65.257812 75 -66.59375 C 75.269531 -67.53125 75.90625 -68.863281 76.90625 -70.59375 C 77.90625 -72.332031 79.203125 -74 80.796875 -75.59375 C 80.796875 -76.664062 82 -77.398438 84.40625 -77.796875 C 86.269531 -79.796875 89.332031 -79.863281 93.59375 -78 C 94.394531 -78 95.128906 -77.863281 95.796875 -77.59375 C 95.796875 -77.332031 96.296875 -77.132812 97.296875 -77 C 98.296875 -76.863281 99.53125 -76 101 -74.40625 L 101 -72.203125 C 101 -70.867188 101.066406 -69.867188 101.203125 -69.203125 C 101.066406 -68.265625 101.132812 -67.0625 101.40625 -65.59375 L 101.40625 -63.203125 C 101.53125 -62.128906 101.863281 -58.796875 102.40625 -53.203125 L 102.40625 -51 C 102.800781 -50.195312 102.960938 -49.363281 102.890625 -48.5 C 102.828125 -47.632812 102.796875 -46.734375 102.796875 -45.796875 C 103.203125 -45.398438 103.535156 -44.300781 103.796875 -42.5 C 104.066406 -40.695312 103.9375 -38.929688 103.40625 -37.203125 L 103.796875 -35.40625 L 103.796875 -29.796875 C 104.460938 -29.265625 104.796875 -28.46875 104.796875 -27.40625 L 105.40625 -24 C 105.40625 -21.601562 105.738281 -19.203125 106.40625 -16.796875 L 106.40625 -14.59375 L 107.40625 -9.40625 L 107.40625 -8.203125 L 107.203125 -6.203125 C 107.203125 -4.734375 106.398438 -3.664062 104.796875 -3 C 104.535156 -2.863281 104.171875 -2.660156 103.703125 -2.390625 C 103.234375 -2.128906 102.46875 -2 101.40625 -2 L 97.203125 -3.40625 L 95.203125 -4.796875 C 94.128906 -4.535156 92.726562 -5.003906 91 -6.203125 C 91 -7.398438 90.53125 -8.46875 89.59375 -9.40625 C 88 -9.9375 87.398438 -11 87.796875 -12.59375 C 87.929688 -12.726562 87.597656 -13.460938 86.796875 -14.796875 C 87.066406 -15.066406 86.867188 -16.535156 86.203125 -19.203125 C 86.203125 -20.398438 86.097656 -21.566406 85.890625 -22.703125 C 85.691406 -23.835938 85.5625 -25.003906 85.5 -26.203125 C 85.4375 -27.398438 85.203125 -28.46875 84.796875 -29.40625 C 84.929688 -29.40625 85 -29.867188 85 -30.796875 C 85 -31.734375 84.863281 -32.601562 84.59375 -33.40625 L 84.59375 -38 L 83.59375 -46 L 80.59375 -36.796875 C 78.59375 -31.597656 77.59375 -28.800781 77.59375 -28.40625 L 71.203125 -8.40625 C 70.796875 -7.601562 70.023438 -6.703125 68.890625 -5.703125 C 67.765625 -4.703125 66.800781 -4.203125 66 -4.203125 C 65.726562 -4.597656 65.023438 -4.796875 63.890625 -4.796875 C 62.765625 -4.796875 61.398438 -4.460938 59.796875 -3.796875 C 55.265625 -3.265625 52.664062 -4.664062 52 -8 L 51.59375 -12.59375 L 51.796875 -17.203125 C 51.535156 -17.597656 51.40625 -18.53125 51.40625 -20 L 51.203125 -22.796875 L 51.203125 -31.40625 L 50.796875 -41.59375 L 50.796875 -51.40625 C 46.929688 -40.863281 44.53125 -33.992188 43.59375 -30.796875 L 36.203125 -7 C 34.734375 -3.132812 32.066406 -1.066406 28.203125 -0.796875 L 26 -0.40625 C 23.0625 0.257812 21.128906 -0.203125 20.203125 -1.796875 L 18.203125 -5.203125 C 17.671875 -8.128906 17.132812 -9.796875 16.59375 -10.203125 C 16.332031 -12.066406 15.664062 -14 14.59375 -16 L 13.59375 -20.796875 C 13.59375 -21.203125 13.460938 -21.800781 13.203125 -22.59375 L 13.203125 -26.203125 C 12.796875 -27.265625 12.457031 -29.425781 12.1875 -32.6875 C 11.925781 -35.957031 11.863281 -38.59375 12 -40.59375 C 11.46875 -42.195312 11.332031 -44.195312 11.59375 -46.59375 L 11.59375 -50.203125 C 10.925781 -53.265625 10.59375 -57.929688 10.59375 -64.203125 L 10.59375 -67 C 11.257812 -71 11.59375 -73.695312 11.59375 -75.09375 C 11.59375 -76.5 11.925781 -77.566406 12.59375 -78.296875 C 13.257812 -79.035156 15.394531 -80.46875 19 -82.59375 Z M 19 -82.59375 "/></g></g></g><g fill="#ffffff" fill-opacity="1"><g transform="translate(585.08467, 182.749489)"><g><path d="M 45.59375 -59 C 44.664062 -64.332031 42.066406 -66.800781 37.796875 -66.40625 C 35.398438 -66.269531 33.332031 -64.664062 31.59375 -61.59375 C 29.195312 -56.925781 28.164062 -50.894531 28.5 -43.5 C 28.832031 -36.101562 29.363281 -30.769531 30.09375 -27.5 C 30.832031 -24.226562 32.132812 -21.394531 34 -19 C 35.0625 -17.132812 36.660156 -16.269531 38.796875 -16.40625 C 42.535156 -16.40625 45.269531 -19.535156 47 -25.796875 L 48.59375 -30.59375 C 49.257812 -31.257812 49.394531 -31.925781 49 -32.59375 C 50.332031 -35.925781 51.066406 -39.863281 51.203125 -44.40625 C 49.867188 -45.332031 49.066406 -46.195312 48.796875 -47 C 47.992188 -49.269531 47.59375 -50.800781 47.59375 -51.59375 C 46.664062 -52.257812 46.132812 -53.523438 46 -55.390625 C 45.863281 -57.265625 45.726562 -58.46875 45.59375 -59 Z M 9 -40.203125 L 9.796875 -50.40625 C 10.734375 -59.601562 13.535156 -67.46875 18.203125 -74 C 22.734375 -79.46875 29.132812 -82.269531 37.40625 -82.40625 L 38.59375 -82.40625 C 46.332031 -82.40625 51.9375 -80.738281 55.40625 -77.40625 C 59.132812 -74.46875 61.898438 -71.265625 63.703125 -67.796875 C 65.503906 -64.328125 66.671875 -61.789062 67.203125 -60.1875 C 67.734375 -58.59375 68.066406 -56.265625 68.203125 -53.203125 C 68.460938 -47.460938 67.328125 -44.195312 64.796875 -43.40625 C 66.660156 -30.738281 65.53125 -20.671875 61.40625 -13.203125 C 60.070312 -10.128906 58.132812 -6.796875 55.59375 -3.203125 C 53.726562 -0.796875 50.394531 0.535156 45.59375 0.796875 C 40.800781 0.796875 36.632812 0.53125 33.09375 0 C 29.5625 -0.53125 25.660156 -2.226562 21.390625 -5.09375 C 17.128906 -7.96875 14.132812 -12.671875 12.40625 -19.203125 C 10.53125 -25.460938 9.394531 -32.460938 9 -40.203125 Z M 9 -40.203125 "/></g></g></g><g fill="#ffffff" fill-opacity="1"><g transform="translate(646.083049, 182.749489)"><g><path d="M 22.796875 -70.59375 L 23 -72.40625 C 20.195312 -72.664062 18.226562 -72.894531 17.09375 -73.09375 C 15.96875 -73.300781 14.132812 -73.535156 11.59375 -73.796875 C 9.0625 -74.066406 7.0625 -74.46875 5.59375 -75 C 2.800781 -75.9375 1.203125 -78.367188 0.796875 -82.296875 C 0.398438 -86.234375 1.664062 -88.664062 4.59375 -89.59375 C 7.257812 -90.257812 9.125 -90.59375 10.1875 -90.59375 C 11.257812 -90.59375 13.265625 -90.726562 16.203125 -91 C 17.671875 -91.800781 19.671875 -92.269531 22.203125 -92.40625 L 25.203125 -93.203125 C 25.203125 -93.066406 25.734375 -93.195312 26.796875 -93.59375 L 27.796875 -97.796875 C 27.796875 -99.929688 28.394531 -102.066406 29.59375 -104.203125 C 29.59375 -105.128906 30.460938 -107.726562 32.203125 -112 C 32.203125 -112.53125 33.398438 -116.394531 35.796875 -123.59375 C 36.328125 -124.257812 38.328125 -125.796875 41.796875 -128.203125 C 43.929688 -129.265625 46.929688 -128.53125 50.796875 -126 C 52.929688 -125.0625 54.398438 -123.796875 55.203125 -122.203125 C 54.398438 -121.398438 54 -119.53125 54 -116.59375 C 53.863281 -115.664062 52.929688 -110.734375 51.203125 -101.796875 L 51.203125 -96.203125 C 52.265625 -96.066406 54.03125 -95.734375 56.5 -95.203125 C 58.96875 -94.671875 61.9375 -94.070312 65.40625 -93.40625 C 72.070312 -92.070312 76.269531 -89.40625 78 -85.40625 C 78.664062 -82.46875 78.53125 -80.398438 77.59375 -79.203125 C 76.664062 -78.003906 74.398438 -77.132812 70.796875 -76.59375 C 67.867188 -76.46875 64.035156 -76.40625 59.296875 -76.40625 C 54.566406 -76.40625 51.066406 -76.070312 48.796875 -75.40625 C 48.535156 -73 48.40625 -71.128906 48.40625 -69.796875 L 48.203125 -66.796875 C 48.203125 -65.867188 47.601562 -60.9375 46.40625 -52 C 45.601562 -50.800781 44.9375 -44.601562 44.40625 -33.40625 L 44.40625 -18.796875 C 44.40625 -16.398438 44.601562 -14.132812 45 -12 C 45.132812 -9.0625 45.46875 -6.992188 46 -5.796875 C 46 -4.597656 46.332031 -2.066406 47 1.796875 C 45.394531 5.660156 42.757812 7.59375 39.09375 7.59375 C 35.425781 7.59375 32.195312 6.257812 29.40625 3.59375 L 27.203125 0.40625 C 26.796875 -0.664062 26.492188 -1.398438 26.296875 -1.796875 C 26.097656 -2.203125 25.929688 -2.671875 25.796875 -3.203125 C 24.867188 -5.867188 24.132812 -7.535156 23.59375 -8.203125 C 22.800781 -9.265625 22.40625 -10.0625 22.40625 -10.59375 C 22.40625 -11.132812 22.40625 -11.800781 22.40625 -12.59375 C 22.132812 -14.863281 21.800781 -16.800781 21.40625 -18.40625 C 20.738281 -19.070312 20.40625 -21.335938 20.40625 -25.203125 C 20.664062 -32.265625 20.664062 -36.332031 20.40625 -37.40625 C 20.800781 -37.800781 20.863281 -40.332031 20.59375 -45 L 21.203125 -49.40625 C 21.203125 -49.9375 21.46875 -51.9375 22 -55.40625 C 21.726562 -55.9375 21.660156 -57.367188 21.796875 -59.703125 C 21.929688 -62.035156 22.132812 -63.664062 22.40625 -64.59375 C 22.664062 -66.195312 22.796875 -68.195312 22.796875 -70.59375 Z M 22.796875 -70.59375 "/></g></g></g><g fill="#ffffff" fill-opacity="1"><g transform="translate(700.281577, 182.749489)"><g><path d="M 20 -125.40625 C 28.9375 -125.40625 35.203125 -123.601562 38.796875 -120 C 38.796875 -117.726562 37.265625 -113.128906 34.203125 -106.203125 C 33.671875 -103.929688 32.800781 -102.128906 31.59375 -100.796875 L 29 -98.203125 C 28.332031 -97.796875 27.664062 -97.59375 27 -97.59375 C 22.195312 -96.394531 18.460938 -97.332031 15.796875 -100.40625 C 15.265625 -101.195312 14.628906 -101.789062 13.890625 -102.1875 C 13.160156 -102.59375 12.597656 -103.796875 12.203125 -105.796875 C 11.003906 -107.535156 10.40625 -108.867188 10.40625 -109.796875 C 10.132812 -118.066406 13.132812 -123.269531 19.40625 -125.40625 Z M 18.40625 -78.203125 C 19.738281 -78.867188 22.867188 -78.203125 27.796875 -76.203125 C 28.328125 -75.671875 29.128906 -75.132812 30.203125 -74.59375 L 33.40625 -72 C 33.9375 -71.46875 34.203125 -70.601562 34.203125 -69.40625 L 34.203125 -51.796875 C 34.203125 -49.128906 34.066406 -46.726562 33.796875 -44.59375 L 33.796875 -43.40625 C 33.398438 -37.9375 33.734375 -25.601562 34.796875 -6.40625 C 35.203125 -2.664062 34.335938 -0.394531 32.203125 0.40625 C 29.929688 0.40625 28.460938 0.0703125 27.796875 -0.59375 C 27.265625 -0.863281 26.800781 -1 26.40625 -1 L 25 -1 L 23.796875 -0.59375 C 23.398438 -0.59375 22.664062 -0.894531 21.59375 -1.5 C 20.53125 -2.101562 19.832031 -2.738281 19.5 -3.40625 C 19.164062 -4.070312 18.597656 -4.46875 17.796875 -4.59375 C 16.328125 -5.132812 15.53125 -6.132812 15.40625 -7.59375 C 13.53125 -11.195312 12.5625 -13.332031 12.5 -14 C 12.4375 -14.664062 12.203125 -15.398438 11.796875 -16.203125 L 10.796875 -33.59375 C 10.796875 -35.59375 10.929688 -37.128906 11.203125 -38.203125 L 11.203125 -43 C 11.335938 -44.46875 11.46875 -47.164062 11.59375 -51.09375 C 11.726562 -55.03125 11.929688 -58.195312 12.203125 -60.59375 C 11.929688 -64.0625 11.796875 -66.394531 11.796875 -67.59375 C 11.796875 -68.800781 11.863281 -69.671875 12 -70.203125 C 10.53125 -71.671875 10.597656 -73.671875 12.203125 -76.203125 C 13.929688 -77.535156 15.597656 -78.203125 17.203125 -78.203125 Z M 18.40625 -78.203125 "/></g></g></g><g fill="#ffffff" fill-opacity="1"><g transform="translate(730.080755, 182.749489)"><g><path d="M 36.40625 -21.59375 L 39 -36.59375 C 39 -37.394531 39.097656 -38.03125 39.296875 -38.5 C 39.492188 -38.96875 39.59375 -39.601562 39.59375 -40.40625 C 39.726562 -41.46875 40.0625 -43.195312 40.59375 -45.59375 C 40.59375 -46.664062 40.863281 -47.535156 41.40625 -48.203125 C 41.664062 -50.335938 43.332031 -54.535156 46.40625 -60.796875 C 46.9375 -62.660156 47.800781 -64.257812 49 -65.59375 C 49 -66.394531 49.398438 -67.332031 50.203125 -68.40625 L 52.59375 -72.59375 C 52.59375 -72.863281 53.0625 -73.863281 54 -75.59375 C 54.800781 -76 55.332031 -76.703125 55.59375 -77.703125 C 55.863281 -78.703125 56.664062 -80.132812 58 -82 C 58.394531 -83.195312 59.925781 -84.332031 62.59375 -85.40625 L 65.796875 -85.40625 L 70.203125 -84 L 73.203125 -82 C 73.867188 -81.332031 74.332031 -80.398438 74.59375 -79.203125 C 74.863281 -79.460938 75 -79.460938 75 -79.203125 C 74.863281 -78.003906 74.0625 -75.003906 72.59375 -70.203125 C 71.257812 -65.796875 70.328125 -62.691406 69.796875 -60.890625 C 69.265625 -59.097656 68.664062 -57.269531 68 -55.40625 C 68 -55.269531 67.460938 -53.367188 66.390625 -49.703125 C 65.328125 -46.035156 64.394531 -43.535156 63.59375 -42.203125 L 59.796875 -28.203125 C 58.328125 -24.734375 57.394531 -21.664062 57 -19 C 54.0625 -5.9375 52.59375 0.859375 52.59375 1.390625 C 52.59375 1.929688 52.0625 3.601562 51 6.40625 C 50.726562 8.53125 48.394531 9.59375 44 9.59375 C 43.332031 8.925781 42.46875 8.328125 41.40625 7.796875 C 41 8.328125 39.195312 8.394531 36 8 C 30.269531 8.664062 25.40625 7.863281 21.40625 5.59375 C 20.46875 4 19.664062 1.46875 19 -2 C 17.269531 -4.9375 16.335938 -7.269531 16.203125 -9 L 14.203125 -12.59375 C 14.203125 -14.332031 13.898438 -15.929688 13.296875 -17.390625 C 12.703125 -18.859375 12.335938 -20.328125 12.203125 -21.796875 C 11.796875 -22.734375 11.59375 -23.800781 11.59375 -25 C 11.332031 -26.0625 11.203125 -27.195312 11.203125 -28.40625 C 10.671875 -30.9375 10.46875 -33.566406 10.59375 -36.296875 C 10.726562 -39.035156 10.597656 -42.335938 10.203125 -46.203125 C 10.203125 -48.460938 10.132812 -49.863281 10 -50.40625 L 10.203125 -55.59375 C 10.203125 -58.132812 10.269531 -59.671875 10.40625 -60.203125 C 9.863281 -62.335938 9.59375 -64.203125 9.59375 -65.796875 L 9.40625 -69.59375 C 9.40625 -71.195312 9.269531 -72.734375 9 -74.203125 C 8.726562 -75.671875 8.863281 -77.132812 9.40625 -78.59375 C 10.332031 -79.664062 11.332031 -80.535156 12.40625 -81.203125 C 14 -82.535156 16.394531 -82.601562 19.59375 -81.40625 L 24.59375 -79.203125 L 26.40625 -77.796875 C 26.664062 -77.535156 26.597656 -76.867188 26.203125 -75.796875 L 27.203125 -66.203125 C 27.203125 -63.128906 27.597656 -59.226562 28.390625 -54.5 C 29.191406 -49.769531 29.726562 -45.835938 30 -42.703125 C 30.269531 -39.566406 30.769531 -35.234375 31.5 -29.703125 C 32.226562 -24.171875 32.660156 -20.738281 32.796875 -19.40625 C 32.796875 -16.863281 33.0625 -15.460938 33.59375 -15.203125 C 34.800781 -17.203125 35.738281 -19.332031 36.40625 -21.59375 Z M 36.40625 -21.59375 "/></g></g></g><g fill="#ffffff" fill-opacity="1"><g transform="translate(791.879075, 182.749489)"><g><path d="M 49.40625 -64 C 49.9375 -66 49.867188 -68.53125 49.203125 -71.59375 C 48.265625 -72.394531 47 -72.796875 45.40625 -72.796875 C 43.40625 -72.796875 41.601562 -70.929688 40 -67.203125 C 37.863281 -64.003906 36.265625 -60.46875 35.203125 -56.59375 L 35 -56.59375 C 33.53125 -51 32.796875 -48 32.796875 -47.59375 C 34.929688 -47.0625 36.664062 -46.828125 38 -46.890625 C 39.332031 -46.960938 40.863281 -47.664062 42.59375 -49 C 45.664062 -51.9375 47.9375 -56.9375 49.40625 -64 Z M 48.796875 -35.203125 L 41.40625 -34.59375 C 37.269531 -34.59375 34 -34.992188 31.59375 -35.796875 L 32.203125 -32 C 32.597656 -20.9375 35.664062 -13.671875 41.40625 -10.203125 C 43 -9.535156 44.328125 -9.203125 45.390625 -9.203125 C 46.460938 -9.203125 47.863281 -9.734375 49.59375 -10.796875 C 50.132812 -11.328125 50.601562 -12.0625 51 -13 C 51.132812 -14.195312 51.800781 -14.726562 53 -14.59375 C 58.46875 -21.53125 62.601562 -24.265625 65.40625 -22.796875 C 68.195312 -20.929688 69.59375 -19.46875 69.59375 -18.40625 C 69.59375 -17.863281 69.257812 -17.257812 68.59375 -16.59375 L 68.59375 -15.40625 C 68.59375 -14.070312 67.757812 -11.671875 66.09375 -8.203125 C 64.425781 -4.734375 62.660156 -1.800781 60.796875 0.59375 C 59.867188 2.59375 58.671875 3.992188 57.203125 4.796875 C 52.929688 7.460938 48.394531 8.53125 43.59375 8 C 42.53125 7.863281 41.800781 7.597656 41.40625 7.203125 C 40.332031 6.929688 39.53125 6.863281 39 7 L 37.40625 6.796875 C 36.195312 6.796875 35.195312 6.53125 34.40625 6 C 33.070312 5.195312 32.132812 4.796875 31.59375 4.796875 C 28.132812 3.460938 26.035156 2.460938 25.296875 1.796875 C 24.566406 1.128906 23.929688 0.660156 23.390625 0.390625 C 22.859375 0.128906 21.59375 -1.265625 19.59375 -3.796875 C 17.863281 -5.265625 16.863281 -6.195312 16.59375 -6.59375 C 15.800781 -7.800781 15.101562 -8.671875 14.5 -9.203125 C 13.894531 -9.734375 13.53125 -10.929688 13.40625 -12.796875 C 12.863281 -13.460938 12.59375 -14.332031 12.59375 -15.40625 L 11.796875 -17 C 11.796875 -17.9375 11.394531 -18.671875 10.59375 -19.203125 C 9.800781 -20.003906 9.40625 -21.003906 9.40625 -22.203125 L 9.40625 -23.796875 C 8.863281 -24.066406 8.726562 -24.867188 9 -26.203125 L 9 -31.40625 L 8.796875 -33.203125 L 8.796875 -34.59375 C 8.660156 -35.132812 8.796875 -36.269531 9.203125 -38 L 9 -39.796875 C 9.132812 -39.929688 9.332031 -41 9.59375 -43 C 10.132812 -45.800781 10.738281 -47.535156 11.40625 -48.203125 L 11.40625 -50 C 11.53125 -50.394531 11.59375 -50.925781 11.59375 -51.59375 C 11.59375 -52.257812 11.757812 -52.992188 12.09375 -53.796875 C 12.425781 -54.597656 13.460938 -57.597656 15.203125 -62.796875 L 18.40625 -69.796875 C 19.332031 -71.796875 20.796875 -74 22.796875 -76.40625 C 22.929688 -77.070312 23.46875 -78.269531 24.40625 -80 L 27 -82.40625 C 27.800781 -83.601562 29 -84.46875 30.59375 -85 C 32.46875 -85.9375 33.867188 -86.40625 34.796875 -86.40625 L 40.40625 -87.203125 C 41.070312 -87.066406 41.535156 -87 41.796875 -87 L 44.40625 -87 C 47.332031 -86.726562 49.726562 -86.128906 51.59375 -85.203125 C 55.59375 -84.003906 58.53125 -82.46875 60.40625 -80.59375 C 64.53125 -75.925781 66.59375 -71.457031 66.59375 -67.1875 C 66.59375 -62.925781 65.925781 -59.265625 64.59375 -56.203125 C 61.257812 -48.597656 58.863281 -43.796875 57.40625 -41.796875 C 55 -37.398438 52.128906 -35.203125 48.796875 -35.203125 Z M 48.796875 -35.203125 "/></g></g></g></svg>